<?xml version="1.0" encoding="utf-8" standalone="no"?>
<!DOCTYPE svg PUBLIC "-//W3C//DTD SVG 1.1//EN"
  "http://www.w3.org/Graphics/SVG/1.1/DTD/svg11.dtd">
<svg xmlns:xlink="http://www.w3.org/1999/xlink" width="864pt" height="576pt" viewBox="0 0 864 576" xmlns="http://www.w3.org/2000/svg" version="1.1">
 <metadata>
  <rdf:RDF xmlns:dc="http://purl.org/dc/elements/1.1/" xmlns:cc="http://creativecommons.org/ns#" xmlns:rdf="http://www.w3.org/1999/02/22-rdf-syntax-ns#">
   <cc:Work>
    <dc:type rdf:resource="http://purl.org/dc/dcmitype/StillImage"/>
    <dc:date>2023-08-18T00:50:00.974150</dc:date>
    <dc:format>image/svg+xml</dc:format>
    <dc:creator>
     <cc:Agent>
      <dc:title>Matplotlib v3.7.1, https://matplotlib.org/</dc:title>
     </cc:Agent>
    </dc:creator>
   </cc:Work>
  </rdf:RDF>
 </metadata>
 <defs>
  <style type="text/css">*{stroke-linejoin: round; stroke-linecap: butt}</style>
 </defs>
 <g id="figure_1">
  <g id="patch_1">
   <path d="M 0 576 
L 864 576 
L 864 0 
L 0 0 
z
" style="fill: #ffffff"/>
  </g>
  <g id="axes_1">
   <g id="patch_2">
    <path d="M 233.54658 440.571171 
Q 265.287963 411.137011 297.849149 380.942638 
" style="fill: none; stroke: #000000; stroke-linecap: round"/>
    <path d="M 239.205241 438.919135 
L 233.54658 440.571171 
L 235.620148 435.053021 
" style="fill: none; stroke: #000000; stroke-linecap: round"/>
   </g>
   <g id="text_1">
    <g id="patch_3">
     <path d="M 128.882778 493.381194 
L 278.431507 493.381194 
Q 282.385916 493.381194 282.385916 489.426785 
L 282.385916 447.149215 
Q 282.385916 443.194806 278.431507 443.194806 
L 128.882778 443.194806 
Q 124.92837 443.194806 124.92837 447.149215 
L 124.92837 489.426785 
Q 124.92837 493.381194 128.882778 493.381194 
z
" style="fill: #ffffff; stroke: #000000; stroke-linejoin: miter"/>
    </g>
    <!-- samples = 14 -->
    <g transform="translate(158.162908 457.16499) scale(0.131814 -0.131814)">
     <defs>
      <path id="DejaVuSans-73" d="M 2834 3397 
L 2834 2853 
Q 2591 2978 2328 3040 
Q 2066 3103 1784 3103 
Q 1356 3103 1142 2972 
Q 928 2841 928 2578 
Q 928 2378 1081 2264 
Q 1234 2150 1697 2047 
L 1894 2003 
Q 2506 1872 2764 1633 
Q 3022 1394 3022 966 
Q 3022 478 2636 193 
Q 2250 -91 1575 -91 
Q 1294 -91 989 -36 
Q 684 19 347 128 
L 347 722 
Q 666 556 975 473 
Q 1284 391 1588 391 
Q 1994 391 2212 530 
Q 2431 669 2431 922 
Q 2431 1156 2273 1281 
Q 2116 1406 1581 1522 
L 1381 1569 
Q 847 1681 609 1914 
Q 372 2147 372 2553 
Q 372 3047 722 3315 
Q 1072 3584 1716 3584 
Q 2034 3584 2315 3537 
Q 2597 3491 2834 3397 
z
" transform="scale(0.015625)"/>
      <path id="DejaVuSans-61" d="M 2194 1759 
Q 1497 1759 1228 1600 
Q 959 1441 959 1056 
Q 959 750 1161 570 
Q 1363 391 1709 391 
Q 2188 391 2477 730 
Q 2766 1069 2766 1631 
L 2766 1759 
L 2194 1759 
z
M 3341 1997 
L 3341 0 
L 2766 0 
L 2766 531 
Q 2569 213 2275 61 
Q 1981 -91 1556 -91 
Q 1019 -91 701 211 
Q 384 513 384 1019 
Q 384 1609 779 1909 
Q 1175 2209 1959 2209 
L 2766 2209 
L 2766 2266 
Q 2766 2663 2505 2880 
Q 2244 3097 1772 3097 
Q 1472 3097 1187 3025 
Q 903 2953 641 2809 
L 641 3341 
Q 956 3463 1253 3523 
Q 1550 3584 1831 3584 
Q 2591 3584 2966 3190 
Q 3341 2797 3341 1997 
z
" transform="scale(0.015625)"/>
      <path id="DejaVuSans-6d" d="M 3328 2828 
Q 3544 3216 3844 3400 
Q 4144 3584 4550 3584 
Q 5097 3584 5394 3201 
Q 5691 2819 5691 2113 
L 5691 0 
L 5113 0 
L 5113 2094 
Q 5113 2597 4934 2840 
Q 4756 3084 4391 3084 
Q 3944 3084 3684 2787 
Q 3425 2491 3425 1978 
L 3425 0 
L 2847 0 
L 2847 2094 
Q 2847 2600 2669 2842 
Q 2491 3084 2119 3084 
Q 1678 3084 1418 2786 
Q 1159 2488 1159 1978 
L 1159 0 
L 581 0 
L 581 3500 
L 1159 3500 
L 1159 2956 
Q 1356 3278 1631 3431 
Q 1906 3584 2284 3584 
Q 2666 3584 2933 3390 
Q 3200 3197 3328 2828 
z
" transform="scale(0.015625)"/>
      <path id="DejaVuSans-70" d="M 1159 525 
L 1159 -1331 
L 581 -1331 
L 581 3500 
L 1159 3500 
L 1159 2969 
Q 1341 3281 1617 3432 
Q 1894 3584 2278 3584 
Q 2916 3584 3314 3078 
Q 3713 2572 3713 1747 
Q 3713 922 3314 415 
Q 2916 -91 2278 -91 
Q 1894 -91 1617 61 
Q 1341 213 1159 525 
z
M 3116 1747 
Q 3116 2381 2855 2742 
Q 2594 3103 2138 3103 
Q 1681 3103 1420 2742 
Q 1159 2381 1159 1747 
Q 1159 1113 1420 752 
Q 1681 391 2138 391 
Q 2594 391 2855 752 
Q 3116 1113 3116 1747 
z
" transform="scale(0.015625)"/>
      <path id="DejaVuSans-6c" d="M 603 4863 
L 1178 4863 
L 1178 0 
L 603 0 
L 603 4863 
z
" transform="scale(0.015625)"/>
      <path id="DejaVuSans-65" d="M 3597 1894 
L 3597 1613 
L 953 1613 
Q 991 1019 1311 708 
Q 1631 397 2203 397 
Q 2534 397 2845 478 
Q 3156 559 3463 722 
L 3463 178 
Q 3153 47 2828 -22 
Q 2503 -91 2169 -91 
Q 1331 -91 842 396 
Q 353 884 353 1716 
Q 353 2575 817 3079 
Q 1281 3584 2069 3584 
Q 2775 3584 3186 3129 
Q 3597 2675 3597 1894 
z
M 3022 2063 
Q 3016 2534 2758 2815 
Q 2500 3097 2075 3097 
Q 1594 3097 1305 2825 
Q 1016 2553 972 2059 
L 3022 2063 
z
" transform="scale(0.015625)"/>
      <path id="DejaVuSans-20" transform="scale(0.015625)"/>
      <path id="DejaVuSans-3d" d="M 678 2906 
L 4684 2906 
L 4684 2381 
L 678 2381 
L 678 2906 
z
M 678 1631 
L 4684 1631 
L 4684 1100 
L 678 1100 
L 678 1631 
z
" transform="scale(0.015625)"/>
      <path id="DejaVuSans-31" d="M 794 531 
L 1825 531 
L 1825 4091 
L 703 3866 
L 703 4441 
L 1819 4666 
L 2450 4666 
L 2450 531 
L 3481 531 
L 3481 0 
L 794 0 
L 794 531 
z
" transform="scale(0.015625)"/>
      <path id="DejaVuSans-34" d="M 2419 4116 
L 825 1625 
L 2419 1625 
L 2419 4116 
z
M 2253 4666 
L 3047 4666 
L 3047 1625 
L 3713 1625 
L 3713 1100 
L 3047 1100 
L 3047 0 
L 2419 0 
L 2419 1100 
L 313 1100 
L 313 1709 
L 2253 4666 
z
" transform="scale(0.015625)"/>
     </defs>
     <use xlink:href="#DejaVuSans-73"/>
     <use xlink:href="#DejaVuSans-61" x="52.099609"/>
     <use xlink:href="#DejaVuSans-6d" x="113.378906"/>
     <use xlink:href="#DejaVuSans-70" x="210.791016"/>
     <use xlink:href="#DejaVuSans-6c" x="274.267578"/>
     <use xlink:href="#DejaVuSans-65" x="302.050781"/>
     <use xlink:href="#DejaVuSans-73" x="363.574219"/>
     <use xlink:href="#DejaVuSans-20" x="415.673828"/>
     <use xlink:href="#DejaVuSans-3d" x="447.460938"/>
     <use xlink:href="#DejaVuSans-20" x="531.25"/>
     <use xlink:href="#DejaVuSans-31" x="563.037109"/>
     <use xlink:href="#DejaVuSans-34" x="626.660156"/>
    </g>
    <!-- value = [0, 0, 14, 0, 0] -->
    <g transform="translate(128.882778 471.925232) scale(0.131814 -0.131814)">
     <defs>
      <path id="DejaVuSans-76" d="M 191 3500 
L 800 3500 
L 1894 563 
L 2988 3500 
L 3597 3500 
L 2284 0 
L 1503 0 
L 191 3500 
z
" transform="scale(0.015625)"/>
      <path id="DejaVuSans-75" d="M 544 1381 
L 544 3500 
L 1119 3500 
L 1119 1403 
Q 1119 906 1312 657 
Q 1506 409 1894 409 
Q 2359 409 2629 706 
Q 2900 1003 2900 1516 
L 2900 3500 
L 3475 3500 
L 3475 0 
L 2900 0 
L 2900 538 
Q 2691 219 2414 64 
Q 2138 -91 1772 -91 
Q 1169 -91 856 284 
Q 544 659 544 1381 
z
M 1991 3584 
L 1991 3584 
z
" transform="scale(0.015625)"/>
      <path id="DejaVuSans-5b" d="M 550 4863 
L 1875 4863 
L 1875 4416 
L 1125 4416 
L 1125 -397 
L 1875 -397 
L 1875 -844 
L 550 -844 
L 550 4863 
z
" transform="scale(0.015625)"/>
      <path id="DejaVuSans-30" d="M 2034 4250 
Q 1547 4250 1301 3770 
Q 1056 3291 1056 2328 
Q 1056 1369 1301 889 
Q 1547 409 2034 409 
Q 2525 409 2770 889 
Q 3016 1369 3016 2328 
Q 3016 3291 2770 3770 
Q 2525 4250 2034 4250 
z
M 2034 4750 
Q 2819 4750 3233 4129 
Q 3647 3509 3647 2328 
Q 3647 1150 3233 529 
Q 2819 -91 2034 -91 
Q 1250 -91 836 529 
Q 422 1150 422 2328 
Q 422 3509 836 4129 
Q 1250 4750 2034 4750 
z
" transform="scale(0.015625)"/>
      <path id="DejaVuSans-2c" d="M 750 794 
L 1409 794 
L 1409 256 
L 897 -744 
L 494 -744 
L 750 256 
L 750 794 
z
" transform="scale(0.015625)"/>
      <path id="DejaVuSans-5d" d="M 1947 4863 
L 1947 -844 
L 622 -844 
L 622 -397 
L 1369 -397 
L 1369 4416 
L 622 4416 
L 622 4863 
L 1947 4863 
z
" transform="scale(0.015625)"/>
     </defs>
     <use xlink:href="#DejaVuSans-76"/>
     <use xlink:href="#DejaVuSans-61" x="59.179688"/>
     <use xlink:href="#DejaVuSans-6c" x="120.458984"/>
     <use xlink:href="#DejaVuSans-75" x="148.242188"/>
     <use xlink:href="#DejaVuSans-65" x="211.621094"/>
     <use xlink:href="#DejaVuSans-20" x="273.144531"/>
     <use xlink:href="#DejaVuSans-3d" x="304.931641"/>
     <use xlink:href="#DejaVuSans-20" x="388.720703"/>
     <use xlink:href="#DejaVuSans-5b" x="420.507812"/>
     <use xlink:href="#DejaVuSans-30" x="459.521484"/>
     <use xlink:href="#DejaVuSans-2c" x="523.144531"/>
     <use xlink:href="#DejaVuSans-20" x="554.931641"/>
     <use xlink:href="#DejaVuSans-30" x="586.71875"/>
     <use xlink:href="#DejaVuSans-2c" x="650.341797"/>
     <use xlink:href="#DejaVuSans-20" x="682.128906"/>
     <use xlink:href="#DejaVuSans-31" x="713.916016"/>
     <use xlink:href="#DejaVuSans-34" x="777.539062"/>
     <use xlink:href="#DejaVuSans-2c" x="841.162109"/>
     <use xlink:href="#DejaVuSans-20" x="872.949219"/>
     <use xlink:href="#DejaVuSans-30" x="904.736328"/>
     <use xlink:href="#DejaVuSans-2c" x="968.359375"/>
     <use xlink:href="#DejaVuSans-20" x="1000.146484"/>
     <use xlink:href="#DejaVuSans-30" x="1031.933594"/>
     <use xlink:href="#DejaVuSans-5d" x="1095.556641"/>
    </g>
    <!-- class = z -->
    <g transform="translate(174.125743 486.685474) scale(0.131814 -0.131814)">
     <defs>
      <path id="DejaVuSans-63" d="M 3122 3366 
L 3122 2828 
Q 2878 2963 2633 3030 
Q 2388 3097 2138 3097 
Q 1578 3097 1268 2742 
Q 959 2388 959 1747 
Q 959 1106 1268 751 
Q 1578 397 2138 397 
Q 2388 397 2633 464 
Q 2878 531 3122 666 
L 3122 134 
Q 2881 22 2623 -34 
Q 2366 -91 2075 -91 
Q 1284 -91 818 406 
Q 353 903 353 1747 
Q 353 2603 823 3093 
Q 1294 3584 2113 3584 
Q 2378 3584 2631 3529 
Q 2884 3475 3122 3366 
z
" transform="scale(0.015625)"/>
      <path id="DejaVuSans-7a" d="M 353 3500 
L 3084 3500 
L 3084 2975 
L 922 459 
L 3084 459 
L 3084 0 
L 275 0 
L 275 525 
L 2438 3041 
L 353 3041 
L 353 3500 
z
" transform="scale(0.015625)"/>
     </defs>
     <use xlink:href="#DejaVuSans-63"/>
     <use xlink:href="#DejaVuSans-6c" x="54.980469"/>
     <use xlink:href="#DejaVuSans-61" x="82.763672"/>
     <use xlink:href="#DejaVuSans-73" x="144.042969"/>
     <use xlink:href="#DejaVuSans-73" x="196.142578"/>
     <use xlink:href="#DejaVuSans-20" x="248.242188"/>
     <use xlink:href="#DejaVuSans-3d" x="280.029297"/>
     <use xlink:href="#DejaVuSans-20" x="363.818359"/>
     <use xlink:href="#DejaVuSans-7a" x="395.605469"/>
    </g>
   </g>
   <g id="patch_4">
    <path d="M 365.081991 440.571171 
Q 333.340608 411.137011 300.779422 380.942638 
" style="fill: none; stroke: #000000; stroke-linecap: round"/>
    <path d="M 363.008424 435.053021 
L 365.081991 440.571171 
L 359.423331 438.919135 
" style="fill: none; stroke: #000000; stroke-linecap: round"/>
   </g>
   <g id="text_2">
    <g id="patch_5">
     <path d="M 320.197064 493.381194 
L 469.745793 493.381194 
Q 473.700202 493.381194 473.700202 489.426785 
L 473.700202 447.149215 
Q 473.700202 443.194806 469.745793 443.194806 
L 320.197064 443.194806 
Q 316.242656 443.194806 316.242656 447.149215 
L 316.242656 489.426785 
Q 316.242656 493.381194 320.197064 493.381194 
z
" style="fill: #ffffff; stroke: #000000; stroke-linejoin: miter"/>
    </g>
    <!-- samples = 19 -->
    <g transform="translate(349.477194 457.16499) scale(0.131814 -0.131814)">
     <defs>
      <path id="DejaVuSans-39" d="M 703 97 
L 703 672 
Q 941 559 1184 500 
Q 1428 441 1663 441 
Q 2288 441 2617 861 
Q 2947 1281 2994 2138 
Q 2813 1869 2534 1725 
Q 2256 1581 1919 1581 
Q 1219 1581 811 2004 
Q 403 2428 403 3163 
Q 403 3881 828 4315 
Q 1253 4750 1959 4750 
Q 2769 4750 3195 4129 
Q 3622 3509 3622 2328 
Q 3622 1225 3098 567 
Q 2575 -91 1691 -91 
Q 1453 -91 1209 -44 
Q 966 3 703 97 
z
M 1959 2075 
Q 2384 2075 2632 2365 
Q 2881 2656 2881 3163 
Q 2881 3666 2632 3958 
Q 2384 4250 1959 4250 
Q 1534 4250 1286 3958 
Q 1038 3666 1038 3163 
Q 1038 2656 1286 2365 
Q 1534 2075 1959 2075 
z
" transform="scale(0.015625)"/>
     </defs>
     <use xlink:href="#DejaVuSans-73"/>
     <use xlink:href="#DejaVuSans-61" x="52.099609"/>
     <use xlink:href="#DejaVuSans-6d" x="113.378906"/>
     <use xlink:href="#DejaVuSans-70" x="210.791016"/>
     <use xlink:href="#DejaVuSans-6c" x="274.267578"/>
     <use xlink:href="#DejaVuSans-65" x="302.050781"/>
     <use xlink:href="#DejaVuSans-73" x="363.574219"/>
     <use xlink:href="#DejaVuSans-20" x="415.673828"/>
     <use xlink:href="#DejaVuSans-3d" x="447.460938"/>
     <use xlink:href="#DejaVuSans-20" x="531.25"/>
     <use xlink:href="#DejaVuSans-31" x="563.037109"/>
     <use xlink:href="#DejaVuSans-39" x="626.660156"/>
    </g>
    <!-- value = [0, 19, 0, 0, 0] -->
    <g transform="translate(320.197064 471.925232) scale(0.131814 -0.131814)">
     <use xlink:href="#DejaVuSans-76"/>
     <use xlink:href="#DejaVuSans-61" x="59.179688"/>
     <use xlink:href="#DejaVuSans-6c" x="120.458984"/>
     <use xlink:href="#DejaVuSans-75" x="148.242188"/>
     <use xlink:href="#DejaVuSans-65" x="211.621094"/>
     <use xlink:href="#DejaVuSans-20" x="273.144531"/>
     <use xlink:href="#DejaVuSans-3d" x="304.931641"/>
     <use xlink:href="#DejaVuSans-20" x="388.720703"/>
     <use xlink:href="#DejaVuSans-5b" x="420.507812"/>
     <use xlink:href="#DejaVuSans-30" x="459.521484"/>
     <use xlink:href="#DejaVuSans-2c" x="523.144531"/>
     <use xlink:href="#DejaVuSans-20" x="554.931641"/>
     <use xlink:href="#DejaVuSans-31" x="586.71875"/>
     <use xlink:href="#DejaVuSans-39" x="650.341797"/>
     <use xlink:href="#DejaVuSans-2c" x="713.964844"/>
     <use xlink:href="#DejaVuSans-20" x="745.751953"/>
     <use xlink:href="#DejaVuSans-30" x="777.539062"/>
     <use xlink:href="#DejaVuSans-2c" x="841.162109"/>
     <use xlink:href="#DejaVuSans-20" x="872.949219"/>
     <use xlink:href="#DejaVuSans-30" x="904.736328"/>
     <use xlink:href="#DejaVuSans-2c" x="968.359375"/>
     <use xlink:href="#DejaVuSans-20" x="1000.146484"/>
     <use xlink:href="#DejaVuSans-30" x="1031.933594"/>
     <use xlink:href="#DejaVuSans-5d" x="1095.556641"/>
    </g>
    <!-- class = circle -->
    <g transform="translate(351.373044 486.685474) scale(0.131814 -0.131814)">
     <defs>
      <path id="DejaVuSans-69" d="M 603 3500 
L 1178 3500 
L 1178 0 
L 603 0 
L 603 3500 
z
M 603 4863 
L 1178 4863 
L 1178 4134 
L 603 4134 
L 603 4863 
z
" transform="scale(0.015625)"/>
      <path id="DejaVuSans-72" d="M 2631 2963 
Q 2534 3019 2420 3045 
Q 2306 3072 2169 3072 
Q 1681 3072 1420 2755 
Q 1159 2438 1159 1844 
L 1159 0 
L 581 0 
L 581 3500 
L 1159 3500 
L 1159 2956 
Q 1341 3275 1631 3429 
Q 1922 3584 2338 3584 
Q 2397 3584 2469 3576 
Q 2541 3569 2628 3553 
L 2631 2963 
z
" transform="scale(0.015625)"/>
     </defs>
     <use xlink:href="#DejaVuSans-63"/>
     <use xlink:href="#DejaVuSans-6c" x="54.980469"/>
     <use xlink:href="#DejaVuSans-61" x="82.763672"/>
     <use xlink:href="#DejaVuSans-73" x="144.042969"/>
     <use xlink:href="#DejaVuSans-73" x="196.142578"/>
     <use xlink:href="#DejaVuSans-20" x="248.242188"/>
     <use xlink:href="#DejaVuSans-3d" x="280.029297"/>
     <use xlink:href="#DejaVuSans-20" x="363.818359"/>
     <use xlink:href="#DejaVuSans-63" x="395.605469"/>
     <use xlink:href="#DejaVuSans-69" x="450.585938"/>
     <use xlink:href="#DejaVuSans-72" x="478.369141"/>
     <use xlink:href="#DejaVuSans-63" x="517.232422"/>
     <use xlink:href="#DejaVuSans-6c" x="572.212891"/>
     <use xlink:href="#DejaVuSans-65" x="599.996094"/>
    </g>
   </g>
   <g id="patch_6">
    <path d="M 337.746581 343.945278 
Q 365.217523 318.471149 393.508267 292.236807 
" style="fill: none; stroke: #000000; stroke-linecap: round"/>
    <path d="M 343.405241 342.293242 
L 337.746581 343.945278 
L 339.820148 338.427128 
" style="fill: none; stroke: #000000; stroke-linecap: round"/>
   </g>
   <g id="text_3">
    <g id="patch_7">
     <path d="M 220.346601 412.240618 
L 378.281971 412.240618 
Q 382.236379 412.240618 382.236379 408.286209 
L 382.236379 350.515184 
Q 382.236379 346.560775 378.281971 346.560775 
L 220.346601 346.560775 
Q 216.392192 346.560775 216.392192 350.515184 
L 216.392192 408.286209 
Q 216.392192 412.240618 220.346601 412.240618 
z
" style="fill: #ffffff; stroke: #000000; stroke-linejoin: miter"/>
    </g>
    <!-- min_x &lt;= -2018.0 -->
    <g transform="translate(239.016764 360.897566) scale(0.131814 -0.131814)">
     <defs>
      <path id="DejaVuSans-6e" d="M 3513 2113 
L 3513 0 
L 2938 0 
L 2938 2094 
Q 2938 2591 2744 2837 
Q 2550 3084 2163 3084 
Q 1697 3084 1428 2787 
Q 1159 2491 1159 1978 
L 1159 0 
L 581 0 
L 581 3500 
L 1159 3500 
L 1159 2956 
Q 1366 3272 1645 3428 
Q 1925 3584 2291 3584 
Q 2894 3584 3203 3211 
Q 3513 2838 3513 2113 
z
" transform="scale(0.015625)"/>
      <path id="DejaVuSans-5f" d="M 3263 -1063 
L 3263 -1509 
L -63 -1509 
L -63 -1063 
L 3263 -1063 
z
" transform="scale(0.015625)"/>
      <path id="DejaVuSans-78" d="M 3513 3500 
L 2247 1797 
L 3578 0 
L 2900 0 
L 1881 1375 
L 863 0 
L 184 0 
L 1544 1831 
L 300 3500 
L 978 3500 
L 1906 2253 
L 2834 3500 
L 3513 3500 
z
" transform="scale(0.015625)"/>
      <path id="DejaVuSans-3c" d="M 4684 3150 
L 1459 2003 
L 4684 863 
L 4684 294 
L 678 1747 
L 678 2266 
L 4684 3719 
L 4684 3150 
z
" transform="scale(0.015625)"/>
      <path id="DejaVuSans-2d" d="M 313 2009 
L 1997 2009 
L 1997 1497 
L 313 1497 
L 313 2009 
z
" transform="scale(0.015625)"/>
      <path id="DejaVuSans-32" d="M 1228 531 
L 3431 531 
L 3431 0 
L 469 0 
L 469 531 
Q 828 903 1448 1529 
Q 2069 2156 2228 2338 
Q 2531 2678 2651 2914 
Q 2772 3150 2772 3378 
Q 2772 3750 2511 3984 
Q 2250 4219 1831 4219 
Q 1534 4219 1204 4116 
Q 875 4013 500 3803 
L 500 4441 
Q 881 4594 1212 4672 
Q 1544 4750 1819 4750 
Q 2544 4750 2975 4387 
Q 3406 4025 3406 3419 
Q 3406 3131 3298 2873 
Q 3191 2616 2906 2266 
Q 2828 2175 2409 1742 
Q 1991 1309 1228 531 
z
" transform="scale(0.015625)"/>
      <path id="DejaVuSans-38" d="M 2034 2216 
Q 1584 2216 1326 1975 
Q 1069 1734 1069 1313 
Q 1069 891 1326 650 
Q 1584 409 2034 409 
Q 2484 409 2743 651 
Q 3003 894 3003 1313 
Q 3003 1734 2745 1975 
Q 2488 2216 2034 2216 
z
M 1403 2484 
Q 997 2584 770 2862 
Q 544 3141 544 3541 
Q 544 4100 942 4425 
Q 1341 4750 2034 4750 
Q 2731 4750 3128 4425 
Q 3525 4100 3525 3541 
Q 3525 3141 3298 2862 
Q 3072 2584 2669 2484 
Q 3125 2378 3379 2068 
Q 3634 1759 3634 1313 
Q 3634 634 3220 271 
Q 2806 -91 2034 -91 
Q 1263 -91 848 271 
Q 434 634 434 1313 
Q 434 1759 690 2068 
Q 947 2378 1403 2484 
z
M 1172 3481 
Q 1172 3119 1398 2916 
Q 1625 2713 2034 2713 
Q 2441 2713 2670 2916 
Q 2900 3119 2900 3481 
Q 2900 3844 2670 4047 
Q 2441 4250 2034 4250 
Q 1625 4250 1398 4047 
Q 1172 3844 1172 3481 
z
" transform="scale(0.015625)"/>
      <path id="DejaVuSans-2e" d="M 684 794 
L 1344 794 
L 1344 0 
L 684 0 
L 684 794 
z
" transform="scale(0.015625)"/>
     </defs>
     <use xlink:href="#DejaVuSans-6d"/>
     <use xlink:href="#DejaVuSans-69" x="97.412109"/>
     <use xlink:href="#DejaVuSans-6e" x="125.195312"/>
     <use xlink:href="#DejaVuSans-5f" x="188.574219"/>
     <use xlink:href="#DejaVuSans-78" x="238.574219"/>
     <use xlink:href="#DejaVuSans-20" x="297.753906"/>
     <use xlink:href="#DejaVuSans-3c" x="329.541016"/>
     <use xlink:href="#DejaVuSans-3d" x="413.330078"/>
     <use xlink:href="#DejaVuSans-20" x="497.119141"/>
     <use xlink:href="#DejaVuSans-2d" x="528.90625"/>
     <use xlink:href="#DejaVuSans-32" x="564.990234"/>
     <use xlink:href="#DejaVuSans-30" x="628.613281"/>
     <use xlink:href="#DejaVuSans-31" x="692.236328"/>
     <use xlink:href="#DejaVuSans-38" x="755.859375"/>
     <use xlink:href="#DejaVuSans-2e" x="819.482422"/>
     <use xlink:href="#DejaVuSans-30" x="851.269531"/>
    </g>
    <!-- samples = 33 -->
    <g transform="translate(253.820051 376.024414) scale(0.131814 -0.131814)">
     <defs>
      <path id="DejaVuSans-33" d="M 2597 2516 
Q 3050 2419 3304 2112 
Q 3559 1806 3559 1356 
Q 3559 666 3084 287 
Q 2609 -91 1734 -91 
Q 1441 -91 1130 -33 
Q 819 25 488 141 
L 488 750 
Q 750 597 1062 519 
Q 1375 441 1716 441 
Q 2309 441 2620 675 
Q 2931 909 2931 1356 
Q 2931 1769 2642 2001 
Q 2353 2234 1838 2234 
L 1294 2234 
L 1294 2753 
L 1863 2753 
Q 2328 2753 2575 2939 
Q 2822 3125 2822 3475 
Q 2822 3834 2567 4026 
Q 2313 4219 1838 4219 
Q 1578 4219 1281 4162 
Q 984 4106 628 3988 
L 628 4550 
Q 988 4650 1302 4700 
Q 1616 4750 1894 4750 
Q 2613 4750 3031 4423 
Q 3450 4097 3450 3541 
Q 3450 3153 3228 2886 
Q 3006 2619 2597 2516 
z
" transform="scale(0.015625)"/>
     </defs>
     <use xlink:href="#DejaVuSans-73"/>
     <use xlink:href="#DejaVuSans-61" x="52.099609"/>
     <use xlink:href="#DejaVuSans-6d" x="113.378906"/>
     <use xlink:href="#DejaVuSans-70" x="210.791016"/>
     <use xlink:href="#DejaVuSans-6c" x="274.267578"/>
     <use xlink:href="#DejaVuSans-65" x="302.050781"/>
     <use xlink:href="#DejaVuSans-73" x="363.574219"/>
     <use xlink:href="#DejaVuSans-20" x="415.673828"/>
     <use xlink:href="#DejaVuSans-3d" x="447.460938"/>
     <use xlink:href="#DejaVuSans-20" x="531.25"/>
     <use xlink:href="#DejaVuSans-33" x="563.037109"/>
     <use xlink:href="#DejaVuSans-33" x="626.660156"/>
    </g>
    <!-- value = [0, 19, 14, 0, 0] -->
    <g transform="translate(220.346601 390.784656) scale(0.131814 -0.131814)">
     <use xlink:href="#DejaVuSans-76"/>
     <use xlink:href="#DejaVuSans-61" x="59.179688"/>
     <use xlink:href="#DejaVuSans-6c" x="120.458984"/>
     <use xlink:href="#DejaVuSans-75" x="148.242188"/>
     <use xlink:href="#DejaVuSans-65" x="211.621094"/>
     <use xlink:href="#DejaVuSans-20" x="273.144531"/>
     <use xlink:href="#DejaVuSans-3d" x="304.931641"/>
     <use xlink:href="#DejaVuSans-20" x="388.720703"/>
     <use xlink:href="#DejaVuSans-5b" x="420.507812"/>
     <use xlink:href="#DejaVuSans-30" x="459.521484"/>
     <use xlink:href="#DejaVuSans-2c" x="523.144531"/>
     <use xlink:href="#DejaVuSans-20" x="554.931641"/>
     <use xlink:href="#DejaVuSans-31" x="586.71875"/>
     <use xlink:href="#DejaVuSans-39" x="650.341797"/>
     <use xlink:href="#DejaVuSans-2c" x="713.964844"/>
     <use xlink:href="#DejaVuSans-20" x="745.751953"/>
     <use xlink:href="#DejaVuSans-31" x="777.539062"/>
     <use xlink:href="#DejaVuSans-34" x="841.162109"/>
     <use xlink:href="#DejaVuSans-2c" x="904.785156"/>
     <use xlink:href="#DejaVuSans-20" x="936.572266"/>
     <use xlink:href="#DejaVuSans-30" x="968.359375"/>
     <use xlink:href="#DejaVuSans-2c" x="1031.982422"/>
     <use xlink:href="#DejaVuSans-20" x="1063.769531"/>
     <use xlink:href="#DejaVuSans-30" x="1095.556641"/>
     <use xlink:href="#DejaVuSans-5d" x="1159.179688"/>
    </g>
    <!-- class = circle -->
    <g transform="translate(255.715902 405.544898) scale(0.131814 -0.131814)">
     <use xlink:href="#DejaVuSans-63"/>
     <use xlink:href="#DejaVuSans-6c" x="54.980469"/>
     <use xlink:href="#DejaVuSans-61" x="82.763672"/>
     <use xlink:href="#DejaVuSans-73" x="144.042969"/>
     <use xlink:href="#DejaVuSans-73" x="196.142578"/>
     <use xlink:href="#DejaVuSans-20" x="248.242188"/>
     <use xlink:href="#DejaVuSans-3d" x="280.029297"/>
     <use xlink:href="#DejaVuSans-20" x="363.818359"/>
     <use xlink:href="#DejaVuSans-63" x="395.605469"/>
     <use xlink:href="#DejaVuSans-69" x="450.585938"/>
     <use xlink:href="#DejaVuSans-72" x="478.369141"/>
     <use xlink:href="#DejaVuSans-63" x="517.232422"/>
     <use xlink:href="#DejaVuSans-6c" x="572.212891"/>
     <use xlink:href="#DejaVuSans-65" x="599.996094"/>
    </g>
   </g>
   <g id="patch_8">
    <path d="M 460.937524 352.051141 
Q 429.09709 322.52513 396.436854 292.238906 
" style="fill: none; stroke: #000000; stroke-linecap: round"/>
    <path d="M 458.863957 346.532991 
L 460.937524 352.051141 
L 455.278864 350.399105 
" style="fill: none; stroke: #000000; stroke-linecap: round"/>
   </g>
   <g id="text_4">
    <g id="patch_9">
     <path d="M 415.854207 404.860497 
L 565.402936 404.860497 
Q 569.357344 404.860497 569.357344 400.906089 
L 569.357344 358.628518 
Q 569.357344 354.67411 565.402936 354.67411 
L 415.854207 354.67411 
Q 411.899798 354.67411 411.899798 358.628518 
L 411.899798 400.906089 
Q 411.899798 404.860497 415.854207 404.860497 
z
" style="fill: #ffffff; stroke: #000000; stroke-linejoin: miter"/>
    </g>
    <!-- samples = 22 -->
    <g transform="translate(445.134337 368.277687) scale(0.131814 -0.131814)">
     <use xlink:href="#DejaVuSans-73"/>
     <use xlink:href="#DejaVuSans-61" x="52.099609"/>
     <use xlink:href="#DejaVuSans-6d" x="113.378906"/>
     <use xlink:href="#DejaVuSans-70" x="210.791016"/>
     <use xlink:href="#DejaVuSans-6c" x="274.267578"/>
     <use xlink:href="#DejaVuSans-65" x="302.050781"/>
     <use xlink:href="#DejaVuSans-73" x="363.574219"/>
     <use xlink:href="#DejaVuSans-20" x="415.673828"/>
     <use xlink:href="#DejaVuSans-3d" x="447.460938"/>
     <use xlink:href="#DejaVuSans-20" x="531.25"/>
     <use xlink:href="#DejaVuSans-32" x="563.037109"/>
     <use xlink:href="#DejaVuSans-32" x="626.660156"/>
    </g>
    <!-- value = [22, 0, 0, 0, 0] -->
    <g transform="translate(415.854207 383.037929) scale(0.131814 -0.131814)">
     <use xlink:href="#DejaVuSans-76"/>
     <use xlink:href="#DejaVuSans-61" x="59.179688"/>
     <use xlink:href="#DejaVuSans-6c" x="120.458984"/>
     <use xlink:href="#DejaVuSans-75" x="148.242188"/>
     <use xlink:href="#DejaVuSans-65" x="211.621094"/>
     <use xlink:href="#DejaVuSans-20" x="273.144531"/>
     <use xlink:href="#DejaVuSans-3d" x="304.931641"/>
     <use xlink:href="#DejaVuSans-20" x="388.720703"/>
     <use xlink:href="#DejaVuSans-5b" x="420.507812"/>
     <use xlink:href="#DejaVuSans-32" x="459.521484"/>
     <use xlink:href="#DejaVuSans-32" x="523.144531"/>
     <use xlink:href="#DejaVuSans-2c" x="586.767578"/>
     <use xlink:href="#DejaVuSans-20" x="618.554688"/>
     <use xlink:href="#DejaVuSans-30" x="650.341797"/>
     <use xlink:href="#DejaVuSans-2c" x="713.964844"/>
     <use xlink:href="#DejaVuSans-20" x="745.751953"/>
     <use xlink:href="#DejaVuSans-30" x="777.539062"/>
     <use xlink:href="#DejaVuSans-2c" x="841.162109"/>
     <use xlink:href="#DejaVuSans-20" x="872.949219"/>
     <use xlink:href="#DejaVuSans-30" x="904.736328"/>
     <use xlink:href="#DejaVuSans-2c" x="968.359375"/>
     <use xlink:href="#DejaVuSans-20" x="1000.146484"/>
     <use xlink:href="#DejaVuSans-30" x="1031.933594"/>
     <use xlink:href="#DejaVuSans-5d" x="1095.556641"/>
    </g>
    <!-- class = no_move -->
    <g transform="translate(434.642797 397.798171) scale(0.131814 -0.131814)">
     <defs>
      <path id="DejaVuSans-6f" d="M 1959 3097 
Q 1497 3097 1228 2736 
Q 959 2375 959 1747 
Q 959 1119 1226 758 
Q 1494 397 1959 397 
Q 2419 397 2687 759 
Q 2956 1122 2956 1747 
Q 2956 2369 2687 2733 
Q 2419 3097 1959 3097 
z
M 1959 3584 
Q 2709 3584 3137 3096 
Q 3566 2609 3566 1747 
Q 3566 888 3137 398 
Q 2709 -91 1959 -91 
Q 1206 -91 779 398 
Q 353 888 353 1747 
Q 353 2609 779 3096 
Q 1206 3584 1959 3584 
z
" transform="scale(0.015625)"/>
     </defs>
     <use xlink:href="#DejaVuSans-63"/>
     <use xlink:href="#DejaVuSans-6c" x="54.980469"/>
     <use xlink:href="#DejaVuSans-61" x="82.763672"/>
     <use xlink:href="#DejaVuSans-73" x="144.042969"/>
     <use xlink:href="#DejaVuSans-73" x="196.142578"/>
     <use xlink:href="#DejaVuSans-20" x="248.242188"/>
     <use xlink:href="#DejaVuSans-3d" x="280.029297"/>
     <use xlink:href="#DejaVuSans-20" x="363.818359"/>
     <use xlink:href="#DejaVuSans-6e" x="395.605469"/>
     <use xlink:href="#DejaVuSans-6f" x="458.984375"/>
     <use xlink:href="#DejaVuSans-5f" x="520.166016"/>
     <use xlink:href="#DejaVuSans-6d" x="570.166016"/>
     <use xlink:href="#DejaVuSans-6f" x="667.578125"/>
     <use xlink:href="#DejaVuSans-76" x="728.759766"/>
     <use xlink:href="#DejaVuSans-65" x="787.939453"/>
    </g>
   </g>
   <g id="patch_10">
    <path d="M 433.215794 255.415547 
Q 460.778332 229.85648 489.160673 203.5372 
" style="fill: none; stroke: #000000; stroke-linecap: round"/>
    <path d="M 438.874455 253.763511 
L 433.215794 255.415547 
L 435.289362 249.897397 
" style="fill: none; stroke: #000000; stroke-linecap: round"/>
   </g>
   <g id="text_5">
    <g id="patch_11">
     <path d="M 311.810423 323.719921 
L 478.132434 323.719921 
Q 482.086843 323.719921 482.086843 319.765513 
L 482.086843 261.994487 
Q 482.086843 258.040079 478.132434 258.040079 
L 311.810423 258.040079 
Q 307.856014 258.040079 307.856014 261.994487 
L 307.856014 319.765513 
Q 307.856014 323.719921 311.810423 323.719921 
z
" style="fill: #ffffff; stroke: #000000; stroke-linejoin: miter"/>
    </g>
    <!-- min_z &lt;= -1260.0 -->
    <g transform="translate(335.115688 272.010263) scale(0.131814 -0.131814)">
     <defs>
      <path id="DejaVuSans-36" d="M 2113 2584 
Q 1688 2584 1439 2293 
Q 1191 2003 1191 1497 
Q 1191 994 1439 701 
Q 1688 409 2113 409 
Q 2538 409 2786 701 
Q 3034 994 3034 1497 
Q 3034 2003 2786 2293 
Q 2538 2584 2113 2584 
z
M 3366 4563 
L 3366 3988 
Q 3128 4100 2886 4159 
Q 2644 4219 2406 4219 
Q 1781 4219 1451 3797 
Q 1122 3375 1075 2522 
Q 1259 2794 1537 2939 
Q 1816 3084 2150 3084 
Q 2853 3084 3261 2657 
Q 3669 2231 3669 1497 
Q 3669 778 3244 343 
Q 2819 -91 2113 -91 
Q 1303 -91 875 529 
Q 447 1150 447 2328 
Q 447 3434 972 4092 
Q 1497 4750 2381 4750 
Q 2619 4750 2861 4703 
Q 3103 4656 3366 4563 
z
" transform="scale(0.015625)"/>
     </defs>
     <use xlink:href="#DejaVuSans-6d"/>
     <use xlink:href="#DejaVuSans-69" x="97.412109"/>
     <use xlink:href="#DejaVuSans-6e" x="125.195312"/>
     <use xlink:href="#DejaVuSans-5f" x="188.574219"/>
     <use xlink:href="#DejaVuSans-7a" x="238.574219"/>
     <use xlink:href="#DejaVuSans-20" x="291.064453"/>
     <use xlink:href="#DejaVuSans-3c" x="322.851562"/>
     <use xlink:href="#DejaVuSans-3d" x="406.640625"/>
     <use xlink:href="#DejaVuSans-20" x="490.429688"/>
     <use xlink:href="#DejaVuSans-2d" x="522.216797"/>
     <use xlink:href="#DejaVuSans-31" x="558.300781"/>
     <use xlink:href="#DejaVuSans-32" x="621.923828"/>
     <use xlink:href="#DejaVuSans-36" x="685.546875"/>
     <use xlink:href="#DejaVuSans-30" x="749.169922"/>
     <use xlink:href="#DejaVuSans-2e" x="812.792969"/>
     <use xlink:href="#DejaVuSans-30" x="844.580078"/>
    </g>
    <!-- samples = 55 -->
    <g transform="translate(349.477194 287.137111) scale(0.131814 -0.131814)">
     <defs>
      <path id="DejaVuSans-35" d="M 691 4666 
L 3169 4666 
L 3169 4134 
L 1269 4134 
L 1269 2991 
Q 1406 3038 1543 3061 
Q 1681 3084 1819 3084 
Q 2600 3084 3056 2656 
Q 3513 2228 3513 1497 
Q 3513 744 3044 326 
Q 2575 -91 1722 -91 
Q 1428 -91 1123 -41 
Q 819 9 494 109 
L 494 744 
Q 775 591 1075 516 
Q 1375 441 1709 441 
Q 2250 441 2565 725 
Q 2881 1009 2881 1497 
Q 2881 1984 2565 2268 
Q 2250 2553 1709 2553 
Q 1456 2553 1204 2497 
Q 953 2441 691 2322 
L 691 4666 
z
" transform="scale(0.015625)"/>
     </defs>
     <use xlink:href="#DejaVuSans-73"/>
     <use xlink:href="#DejaVuSans-61" x="52.099609"/>
     <use xlink:href="#DejaVuSans-6d" x="113.378906"/>
     <use xlink:href="#DejaVuSans-70" x="210.791016"/>
     <use xlink:href="#DejaVuSans-6c" x="274.267578"/>
     <use xlink:href="#DejaVuSans-65" x="302.050781"/>
     <use xlink:href="#DejaVuSans-73" x="363.574219"/>
     <use xlink:href="#DejaVuSans-20" x="415.673828"/>
     <use xlink:href="#DejaVuSans-3d" x="447.460938"/>
     <use xlink:href="#DejaVuSans-20" x="531.25"/>
     <use xlink:href="#DejaVuSans-35" x="563.037109"/>
     <use xlink:href="#DejaVuSans-35" x="626.660156"/>
    </g>
    <!-- value = [22, 19, 14, 0, 0] -->
    <g transform="translate(311.810423 301.897353) scale(0.131814 -0.131814)">
     <use xlink:href="#DejaVuSans-76"/>
     <use xlink:href="#DejaVuSans-61" x="59.179688"/>
     <use xlink:href="#DejaVuSans-6c" x="120.458984"/>
     <use xlink:href="#DejaVuSans-75" x="148.242188"/>
     <use xlink:href="#DejaVuSans-65" x="211.621094"/>
     <use xlink:href="#DejaVuSans-20" x="273.144531"/>
     <use xlink:href="#DejaVuSans-3d" x="304.931641"/>
     <use xlink:href="#DejaVuSans-20" x="388.720703"/>
     <use xlink:href="#DejaVuSans-5b" x="420.507812"/>
     <use xlink:href="#DejaVuSans-32" x="459.521484"/>
     <use xlink:href="#DejaVuSans-32" x="523.144531"/>
     <use xlink:href="#DejaVuSans-2c" x="586.767578"/>
     <use xlink:href="#DejaVuSans-20" x="618.554688"/>
     <use xlink:href="#DejaVuSans-31" x="650.341797"/>
     <use xlink:href="#DejaVuSans-39" x="713.964844"/>
     <use xlink:href="#DejaVuSans-2c" x="777.587891"/>
     <use xlink:href="#DejaVuSans-20" x="809.375"/>
     <use xlink:href="#DejaVuSans-31" x="841.162109"/>
     <use xlink:href="#DejaVuSans-34" x="904.785156"/>
     <use xlink:href="#DejaVuSans-2c" x="968.408203"/>
     <use xlink:href="#DejaVuSans-20" x="1000.195312"/>
     <use xlink:href="#DejaVuSans-30" x="1031.982422"/>
     <use xlink:href="#DejaVuSans-2c" x="1095.605469"/>
     <use xlink:href="#DejaVuSans-20" x="1127.392578"/>
     <use xlink:href="#DejaVuSans-30" x="1159.179688"/>
     <use xlink:href="#DejaVuSans-5d" x="1222.802734"/>
    </g>
    <!-- class = no_move -->
    <g transform="translate(338.985654 316.657595) scale(0.131814 -0.131814)">
     <use xlink:href="#DejaVuSans-63"/>
     <use xlink:href="#DejaVuSans-6c" x="54.980469"/>
     <use xlink:href="#DejaVuSans-61" x="82.763672"/>
     <use xlink:href="#DejaVuSans-73" x="144.042969"/>
     <use xlink:href="#DejaVuSans-73" x="196.142578"/>
     <use xlink:href="#DejaVuSans-20" x="248.242188"/>
     <use xlink:href="#DejaVuSans-3d" x="280.029297"/>
     <use xlink:href="#DejaVuSans-20" x="363.818359"/>
     <use xlink:href="#DejaVuSans-6e" x="395.605469"/>
     <use xlink:href="#DejaVuSans-6f" x="458.984375"/>
     <use xlink:href="#DejaVuSans-5f" x="520.166016"/>
     <use xlink:href="#DejaVuSans-6d" x="570.166016"/>
     <use xlink:href="#DejaVuSans-6f" x="667.578125"/>
     <use xlink:href="#DejaVuSans-76" x="728.759766"/>
     <use xlink:href="#DejaVuSans-65" x="787.939453"/>
    </g>
   </g>
   <g id="patch_12">
    <path d="M 556.396277 263.163171 
Q 524.654894 233.729011 492.093708 203.534638 
" style="fill: none; stroke: #000000; stroke-linecap: round"/>
    <path d="M 554.32271 257.645021 
L 556.396277 263.163171 
L 550.737617 261.511135 
" style="fill: none; stroke: #000000; stroke-linecap: round"/>
   </g>
   <g id="text_6">
    <g id="patch_13">
     <path d="M 511.51135 315.973194 
L 661.060079 315.973194 
Q 665.014487 315.973194 665.014487 312.018785 
L 665.014487 269.741215 
Q 665.014487 265.786806 661.060079 265.786806 
L 511.51135 265.786806 
Q 507.556941 265.786806 507.556941 269.741215 
L 507.556941 312.018785 
Q 507.556941 315.973194 511.51135 315.973194 
z
" style="fill: #ffffff; stroke: #000000; stroke-linejoin: miter"/>
    </g>
    <!-- samples = 23 -->
    <g transform="translate(540.79148 279.75699) scale(0.131814 -0.131814)">
     <use xlink:href="#DejaVuSans-73"/>
     <use xlink:href="#DejaVuSans-61" x="52.099609"/>
     <use xlink:href="#DejaVuSans-6d" x="113.378906"/>
     <use xlink:href="#DejaVuSans-70" x="210.791016"/>
     <use xlink:href="#DejaVuSans-6c" x="274.267578"/>
     <use xlink:href="#DejaVuSans-65" x="302.050781"/>
     <use xlink:href="#DejaVuSans-73" x="363.574219"/>
     <use xlink:href="#DejaVuSans-20" x="415.673828"/>
     <use xlink:href="#DejaVuSans-3d" x="447.460938"/>
     <use xlink:href="#DejaVuSans-20" x="531.25"/>
     <use xlink:href="#DejaVuSans-32" x="563.037109"/>
     <use xlink:href="#DejaVuSans-33" x="626.660156"/>
    </g>
    <!-- value = [0, 0, 0, 23, 0] -->
    <g transform="translate(511.51135 294.517232) scale(0.131814 -0.131814)">
     <use xlink:href="#DejaVuSans-76"/>
     <use xlink:href="#DejaVuSans-61" x="59.179688"/>
     <use xlink:href="#DejaVuSans-6c" x="120.458984"/>
     <use xlink:href="#DejaVuSans-75" x="148.242188"/>
     <use xlink:href="#DejaVuSans-65" x="211.621094"/>
     <use xlink:href="#DejaVuSans-20" x="273.144531"/>
     <use xlink:href="#DejaVuSans-3d" x="304.931641"/>
     <use xlink:href="#DejaVuSans-20" x="388.720703"/>
     <use xlink:href="#DejaVuSans-5b" x="420.507812"/>
     <use xlink:href="#DejaVuSans-30" x="459.521484"/>
     <use xlink:href="#DejaVuSans-2c" x="523.144531"/>
     <use xlink:href="#DejaVuSans-20" x="554.931641"/>
     <use xlink:href="#DejaVuSans-30" x="586.71875"/>
     <use xlink:href="#DejaVuSans-2c" x="650.341797"/>
     <use xlink:href="#DejaVuSans-20" x="682.128906"/>
     <use xlink:href="#DejaVuSans-30" x="713.916016"/>
     <use xlink:href="#DejaVuSans-2c" x="777.539062"/>
     <use xlink:href="#DejaVuSans-20" x="809.326172"/>
     <use xlink:href="#DejaVuSans-32" x="841.113281"/>
     <use xlink:href="#DejaVuSans-33" x="904.736328"/>
     <use xlink:href="#DejaVuSans-2c" x="968.359375"/>
     <use xlink:href="#DejaVuSans-20" x="1000.146484"/>
     <use xlink:href="#DejaVuSans-30" x="1031.933594"/>
     <use xlink:href="#DejaVuSans-5d" x="1095.556641"/>
    </g>
    <!-- class = w -->
    <g transform="translate(554.823451 309.277474) scale(0.131814 -0.131814)">
     <defs>
      <path id="DejaVuSans-77" d="M 269 3500 
L 844 3500 
L 1563 769 
L 2278 3500 
L 2956 3500 
L 3675 769 
L 4391 3500 
L 4966 3500 
L 4050 0 
L 3372 0 
L 2619 2869 
L 1863 0 
L 1184 0 
L 269 3500 
z
" transform="scale(0.015625)"/>
     </defs>
     <use xlink:href="#DejaVuSans-63"/>
     <use xlink:href="#DejaVuSans-6c" x="54.980469"/>
     <use xlink:href="#DejaVuSans-61" x="82.763672"/>
     <use xlink:href="#DejaVuSans-73" x="144.042969"/>
     <use xlink:href="#DejaVuSans-73" x="196.142578"/>
     <use xlink:href="#DejaVuSans-20" x="248.242188"/>
     <use xlink:href="#DejaVuSans-3d" x="280.029297"/>
     <use xlink:href="#DejaVuSans-20" x="363.818359"/>
     <use xlink:href="#DejaVuSans-77" x="395.605469"/>
    </g>
   </g>
   <g id="patch_14">
    <path d="M 529.060867 166.537278 
Q 556.531808 141.063149 584.822553 114.828807 
" style="fill: none; stroke: #000000; stroke-linecap: round"/>
    <path d="M 534.719527 164.885242 
L 529.060867 166.537278 
L 531.134434 161.019128 
" style="fill: none; stroke: #000000; stroke-linecap: round"/>
   </g>
   <g id="text_7">
    <g id="patch_15">
     <path d="M 403.274245 234.832618 
L 577.982898 234.832618 
Q 581.937307 234.832618 581.937307 230.878209 
L 581.937307 173.107184 
Q 581.937307 169.152775 577.982898 169.152775 
L 403.274245 169.152775 
Q 399.319836 169.152775 399.319836 173.107184 
L 399.319836 230.878209 
Q 399.319836 234.832618 403.274245 234.832618 
z
" style="fill: #ffffff; stroke: #000000; stroke-linejoin: miter"/>
    </g>
    <!-- std_z &lt;= 686.272 -->
    <g transform="translate(431.183719 183.489566) scale(0.131814 -0.131814)">
     <defs>
      <path id="DejaVuSans-74" d="M 1172 4494 
L 1172 3500 
L 2356 3500 
L 2356 3053 
L 1172 3053 
L 1172 1153 
Q 1172 725 1289 603 
Q 1406 481 1766 481 
L 2356 481 
L 2356 0 
L 1766 0 
Q 1100 0 847 248 
Q 594 497 594 1153 
L 594 3053 
L 172 3053 
L 172 3500 
L 594 3500 
L 594 4494 
L 1172 4494 
z
" transform="scale(0.015625)"/>
      <path id="DejaVuSans-64" d="M 2906 2969 
L 2906 4863 
L 3481 4863 
L 3481 0 
L 2906 0 
L 2906 525 
Q 2725 213 2448 61 
Q 2172 -91 1784 -91 
Q 1150 -91 751 415 
Q 353 922 353 1747 
Q 353 2572 751 3078 
Q 1150 3584 1784 3584 
Q 2172 3584 2448 3432 
Q 2725 3281 2906 2969 
z
M 947 1747 
Q 947 1113 1208 752 
Q 1469 391 1925 391 
Q 2381 391 2643 752 
Q 2906 1113 2906 1747 
Q 2906 2381 2643 2742 
Q 2381 3103 1925 3103 
Q 1469 3103 1208 2742 
Q 947 2381 947 1747 
z
" transform="scale(0.015625)"/>
      <path id="DejaVuSans-37" d="M 525 4666 
L 3525 4666 
L 3525 4397 
L 1831 0 
L 1172 0 
L 2766 4134 
L 525 4134 
L 525 4666 
z
" transform="scale(0.015625)"/>
     </defs>
     <use xlink:href="#DejaVuSans-73"/>
     <use xlink:href="#DejaVuSans-74" x="52.099609"/>
     <use xlink:href="#DejaVuSans-64" x="91.308594"/>
     <use xlink:href="#DejaVuSans-5f" x="154.785156"/>
     <use xlink:href="#DejaVuSans-7a" x="204.785156"/>
     <use xlink:href="#DejaVuSans-20" x="257.275391"/>
     <use xlink:href="#DejaVuSans-3c" x="289.0625"/>
     <use xlink:href="#DejaVuSans-3d" x="372.851562"/>
     <use xlink:href="#DejaVuSans-20" x="456.640625"/>
     <use xlink:href="#DejaVuSans-36" x="488.427734"/>
     <use xlink:href="#DejaVuSans-38" x="552.050781"/>
     <use xlink:href="#DejaVuSans-36" x="615.673828"/>
     <use xlink:href="#DejaVuSans-2e" x="679.296875"/>
     <use xlink:href="#DejaVuSans-32" x="711.083984"/>
     <use xlink:href="#DejaVuSans-37" x="774.707031"/>
     <use xlink:href="#DejaVuSans-32" x="838.330078"/>
    </g>
    <!-- samples = 78 -->
    <g transform="translate(445.134337 198.616414) scale(0.131814 -0.131814)">
     <use xlink:href="#DejaVuSans-73"/>
     <use xlink:href="#DejaVuSans-61" x="52.099609"/>
     <use xlink:href="#DejaVuSans-6d" x="113.378906"/>
     <use xlink:href="#DejaVuSans-70" x="210.791016"/>
     <use xlink:href="#DejaVuSans-6c" x="274.267578"/>
     <use xlink:href="#DejaVuSans-65" x="302.050781"/>
     <use xlink:href="#DejaVuSans-73" x="363.574219"/>
     <use xlink:href="#DejaVuSans-20" x="415.673828"/>
     <use xlink:href="#DejaVuSans-3d" x="447.460938"/>
     <use xlink:href="#DejaVuSans-20" x="531.25"/>
     <use xlink:href="#DejaVuSans-37" x="563.037109"/>
     <use xlink:href="#DejaVuSans-38" x="626.660156"/>
    </g>
    <!-- value = [22, 19, 14, 23, 0] -->
    <g transform="translate(403.274245 213.376656) scale(0.131814 -0.131814)">
     <use xlink:href="#DejaVuSans-76"/>
     <use xlink:href="#DejaVuSans-61" x="59.179688"/>
     <use xlink:href="#DejaVuSans-6c" x="120.458984"/>
     <use xlink:href="#DejaVuSans-75" x="148.242188"/>
     <use xlink:href="#DejaVuSans-65" x="211.621094"/>
     <use xlink:href="#DejaVuSans-20" x="273.144531"/>
     <use xlink:href="#DejaVuSans-3d" x="304.931641"/>
     <use xlink:href="#DejaVuSans-20" x="388.720703"/>
     <use xlink:href="#DejaVuSans-5b" x="420.507812"/>
     <use xlink:href="#DejaVuSans-32" x="459.521484"/>
     <use xlink:href="#DejaVuSans-32" x="523.144531"/>
     <use xlink:href="#DejaVuSans-2c" x="586.767578"/>
     <use xlink:href="#DejaVuSans-20" x="618.554688"/>
     <use xlink:href="#DejaVuSans-31" x="650.341797"/>
     <use xlink:href="#DejaVuSans-39" x="713.964844"/>
     <use xlink:href="#DejaVuSans-2c" x="777.587891"/>
     <use xlink:href="#DejaVuSans-20" x="809.375"/>
     <use xlink:href="#DejaVuSans-31" x="841.162109"/>
     <use xlink:href="#DejaVuSans-34" x="904.785156"/>
     <use xlink:href="#DejaVuSans-2c" x="968.408203"/>
     <use xlink:href="#DejaVuSans-20" x="1000.195312"/>
     <use xlink:href="#DejaVuSans-32" x="1031.982422"/>
     <use xlink:href="#DejaVuSans-33" x="1095.605469"/>
     <use xlink:href="#DejaVuSans-2c" x="1159.228516"/>
     <use xlink:href="#DejaVuSans-20" x="1191.015625"/>
     <use xlink:href="#DejaVuSans-30" x="1222.802734"/>
     <use xlink:href="#DejaVuSans-5d" x="1286.425781"/>
    </g>
    <!-- class = w -->
    <g transform="translate(459.166308 228.136898) scale(0.131814 -0.131814)">
     <use xlink:href="#DejaVuSans-63"/>
     <use xlink:href="#DejaVuSans-6c" x="54.980469"/>
     <use xlink:href="#DejaVuSans-61" x="82.763672"/>
     <use xlink:href="#DejaVuSans-73" x="144.042969"/>
     <use xlink:href="#DejaVuSans-73" x="196.142578"/>
     <use xlink:href="#DejaVuSans-20" x="248.242188"/>
     <use xlink:href="#DejaVuSans-3d" x="280.029297"/>
     <use xlink:href="#DejaVuSans-20" x="363.818359"/>
     <use xlink:href="#DejaVuSans-77" x="395.605469"/>
    </g>
   </g>
   <g id="patch_16">
    <path d="M 652.05342 174.459171 
Q 620.312037 145.025011 587.750851 114.830638 
" style="fill: none; stroke: #000000; stroke-linecap: round"/>
    <path d="M 649.979852 168.941021 
L 652.05342 174.459171 
L 646.394759 172.807135 
" style="fill: none; stroke: #000000; stroke-linecap: round"/>
   </g>
   <g id="text_8">
    <g id="patch_17">
     <path d="M 607.168493 227.269194 
L 756.717222 227.269194 
Q 760.67163 227.269194 760.67163 223.314785 
L 760.67163 181.037215 
Q 760.67163 177.082806 756.717222 177.082806 
L 607.168493 177.082806 
Q 603.214084 177.082806 603.214084 181.037215 
L 603.214084 223.314785 
Q 603.214084 227.269194 607.168493 227.269194 
z
" style="fill: #ffffff; stroke: #000000; stroke-linejoin: miter"/>
    </g>
    <!-- samples = 22 -->
    <g transform="translate(636.448623 191.05299) scale(0.131814 -0.131814)">
     <use xlink:href="#DejaVuSans-73"/>
     <use xlink:href="#DejaVuSans-61" x="52.099609"/>
     <use xlink:href="#DejaVuSans-6d" x="113.378906"/>
     <use xlink:href="#DejaVuSans-70" x="210.791016"/>
     <use xlink:href="#DejaVuSans-6c" x="274.267578"/>
     <use xlink:href="#DejaVuSans-65" x="302.050781"/>
     <use xlink:href="#DejaVuSans-73" x="363.574219"/>
     <use xlink:href="#DejaVuSans-20" x="415.673828"/>
     <use xlink:href="#DejaVuSans-3d" x="447.460938"/>
     <use xlink:href="#DejaVuSans-20" x="531.25"/>
     <use xlink:href="#DejaVuSans-32" x="563.037109"/>
     <use xlink:href="#DejaVuSans-32" x="626.660156"/>
    </g>
    <!-- value = [0, 0, 0, 0, 22] -->
    <g transform="translate(607.168493 205.813232) scale(0.131814 -0.131814)">
     <use xlink:href="#DejaVuSans-76"/>
     <use xlink:href="#DejaVuSans-61" x="59.179688"/>
     <use xlink:href="#DejaVuSans-6c" x="120.458984"/>
     <use xlink:href="#DejaVuSans-75" x="148.242188"/>
     <use xlink:href="#DejaVuSans-65" x="211.621094"/>
     <use xlink:href="#DejaVuSans-20" x="273.144531"/>
     <use xlink:href="#DejaVuSans-3d" x="304.931641"/>
     <use xlink:href="#DejaVuSans-20" x="388.720703"/>
     <use xlink:href="#DejaVuSans-5b" x="420.507812"/>
     <use xlink:href="#DejaVuSans-30" x="459.521484"/>
     <use xlink:href="#DejaVuSans-2c" x="523.144531"/>
     <use xlink:href="#DejaVuSans-20" x="554.931641"/>
     <use xlink:href="#DejaVuSans-30" x="586.71875"/>
     <use xlink:href="#DejaVuSans-2c" x="650.341797"/>
     <use xlink:href="#DejaVuSans-20" x="682.128906"/>
     <use xlink:href="#DejaVuSans-30" x="713.916016"/>
     <use xlink:href="#DejaVuSans-2c" x="777.539062"/>
     <use xlink:href="#DejaVuSans-20" x="809.326172"/>
     <use xlink:href="#DejaVuSans-30" x="841.113281"/>
     <use xlink:href="#DejaVuSans-2c" x="904.736328"/>
     <use xlink:href="#DejaVuSans-20" x="936.523438"/>
     <use xlink:href="#DejaVuSans-32" x="968.310547"/>
     <use xlink:href="#DejaVuSans-32" x="1031.933594"/>
     <use xlink:href="#DejaVuSans-5d" x="1095.556641"/>
    </g>
    <!-- class = flick -->
    <g transform="translate(642.448202 220.573474) scale(0.131814 -0.131814)">
     <defs>
      <path id="DejaVuSans-66" d="M 2375 4863 
L 2375 4384 
L 1825 4384 
Q 1516 4384 1395 4259 
Q 1275 4134 1275 3809 
L 1275 3500 
L 2222 3500 
L 2222 3053 
L 1275 3053 
L 1275 0 
L 697 0 
L 697 3053 
L 147 3053 
L 147 3500 
L 697 3500 
L 697 3744 
Q 697 4328 969 4595 
Q 1241 4863 1831 4863 
L 2375 4863 
z
" transform="scale(0.015625)"/>
      <path id="DejaVuSans-6b" d="M 581 4863 
L 1159 4863 
L 1159 1991 
L 2875 3500 
L 3609 3500 
L 1753 1863 
L 3688 0 
L 2938 0 
L 1159 1709 
L 1159 0 
L 581 0 
L 581 4863 
z
" transform="scale(0.015625)"/>
     </defs>
     <use xlink:href="#DejaVuSans-63"/>
     <use xlink:href="#DejaVuSans-6c" x="54.980469"/>
     <use xlink:href="#DejaVuSans-61" x="82.763672"/>
     <use xlink:href="#DejaVuSans-73" x="144.042969"/>
     <use xlink:href="#DejaVuSans-73" x="196.142578"/>
     <use xlink:href="#DejaVuSans-20" x="248.242188"/>
     <use xlink:href="#DejaVuSans-3d" x="280.029297"/>
     <use xlink:href="#DejaVuSans-20" x="363.818359"/>
     <use xlink:href="#DejaVuSans-66" x="395.605469"/>
     <use xlink:href="#DejaVuSans-6c" x="430.810547"/>
     <use xlink:href="#DejaVuSans-69" x="458.59375"/>
     <use xlink:href="#DejaVuSans-63" x="486.376953"/>
     <use xlink:href="#DejaVuSans-6b" x="541.357422"/>
    </g>
   </g>
   <g id="patch_18">
    <path d="M 586.285714 113.472 
Q 586.285714 113.472 586.285714 113.472 
" style="fill: none; stroke: #000000; stroke-linecap: round"/>
   </g>
   <g id="text_9">
    <g id="patch_19">
     <path d="M 494.738067 146.012251 
L 677.833362 146.012251 
Q 681.78777 146.012251 681.78777 142.057843 
L 681.78777 84.519551 
Q 681.78777 80.565142 677.833362 80.565142 
L 494.738067 80.565142 
Q 490.783658 80.565142 490.783658 84.519551 
L 490.783658 142.057843 
Q 490.783658 146.012251 494.738067 146.012251 
z
" style="fill: #ffffff; stroke: #000000; stroke-linejoin: miter"/>
    </g>
    <!-- max_z &lt;= 1688.0 -->
    <g transform="translate(526.875875 94.669199) scale(0.131814 -0.131814)">
     <use xlink:href="#DejaVuSans-6d"/>
     <use xlink:href="#DejaVuSans-61" x="97.412109"/>
     <use xlink:href="#DejaVuSans-78" x="158.691406"/>
     <use xlink:href="#DejaVuSans-5f" x="217.871094"/>
     <use xlink:href="#DejaVuSans-7a" x="267.871094"/>
     <use xlink:href="#DejaVuSans-20" x="320.361328"/>
     <use xlink:href="#DejaVuSans-3c" x="352.148438"/>
     <use xlink:href="#DejaVuSans-3d" x="435.9375"/>
     <use xlink:href="#DejaVuSans-20" x="519.726562"/>
     <use xlink:href="#DejaVuSans-31" x="551.513672"/>
     <use xlink:href="#DejaVuSans-36" x="615.136719"/>
     <use xlink:href="#DejaVuSans-38" x="678.759766"/>
     <use xlink:href="#DejaVuSans-38" x="742.382812"/>
     <use xlink:href="#DejaVuSans-2e" x="806.005859"/>
     <use xlink:href="#DejaVuSans-30" x="837.792969"/>
    </g>
    <!-- samples = 100 -->
    <g transform="translate(536.598159 109.796048) scale(0.131814 -0.131814)">
     <use xlink:href="#DejaVuSans-73"/>
     <use xlink:href="#DejaVuSans-61" x="52.099609"/>
     <use xlink:href="#DejaVuSans-6d" x="113.378906"/>
     <use xlink:href="#DejaVuSans-70" x="210.791016"/>
     <use xlink:href="#DejaVuSans-6c" x="274.267578"/>
     <use xlink:href="#DejaVuSans-65" x="302.050781"/>
     <use xlink:href="#DejaVuSans-73" x="363.574219"/>
     <use xlink:href="#DejaVuSans-20" x="415.673828"/>
     <use xlink:href="#DejaVuSans-3d" x="447.460938"/>
     <use xlink:href="#DejaVuSans-20" x="531.25"/>
     <use xlink:href="#DejaVuSans-31" x="563.037109"/>
     <use xlink:href="#DejaVuSans-30" x="626.660156"/>
     <use xlink:href="#DejaVuSans-30" x="690.283203"/>
    </g>
    <!-- value = [22, 19, 14, 23, 22] -->
    <g transform="translate(494.738067 124.55629) scale(0.131814 -0.131814)">
     <use xlink:href="#DejaVuSans-76"/>
     <use xlink:href="#DejaVuSans-61" x="59.179688"/>
     <use xlink:href="#DejaVuSans-6c" x="120.458984"/>
     <use xlink:href="#DejaVuSans-75" x="148.242188"/>
     <use xlink:href="#DejaVuSans-65" x="211.621094"/>
     <use xlink:href="#DejaVuSans-20" x="273.144531"/>
     <use xlink:href="#DejaVuSans-3d" x="304.931641"/>
     <use xlink:href="#DejaVuSans-20" x="388.720703"/>
     <use xlink:href="#DejaVuSans-5b" x="420.507812"/>
     <use xlink:href="#DejaVuSans-32" x="459.521484"/>
     <use xlink:href="#DejaVuSans-32" x="523.144531"/>
     <use xlink:href="#DejaVuSans-2c" x="586.767578"/>
     <use xlink:href="#DejaVuSans-20" x="618.554688"/>
     <use xlink:href="#DejaVuSans-31" x="650.341797"/>
     <use xlink:href="#DejaVuSans-39" x="713.964844"/>
     <use xlink:href="#DejaVuSans-2c" x="777.587891"/>
     <use xlink:href="#DejaVuSans-20" x="809.375"/>
     <use xlink:href="#DejaVuSans-31" x="841.162109"/>
     <use xlink:href="#DejaVuSans-34" x="904.785156"/>
     <use xlink:href="#DejaVuSans-2c" x="968.408203"/>
     <use xlink:href="#DejaVuSans-20" x="1000.195312"/>
     <use xlink:href="#DejaVuSans-32" x="1031.982422"/>
     <use xlink:href="#DejaVuSans-33" x="1095.605469"/>
     <use xlink:href="#DejaVuSans-2c" x="1159.228516"/>
     <use xlink:href="#DejaVuSans-20" x="1191.015625"/>
     <use xlink:href="#DejaVuSans-32" x="1222.802734"/>
     <use xlink:href="#DejaVuSans-32" x="1286.425781"/>
     <use xlink:href="#DejaVuSans-5d" x="1350.048828"/>
    </g>
    <!-- class = w -->
    <g transform="translate(554.823451 139.316531) scale(0.131814 -0.131814)">
     <use xlink:href="#DejaVuSans-63"/>
     <use xlink:href="#DejaVuSans-6c" x="54.980469"/>
     <use xlink:href="#DejaVuSans-61" x="82.763672"/>
     <use xlink:href="#DejaVuSans-73" x="144.042969"/>
     <use xlink:href="#DejaVuSans-73" x="196.142578"/>
     <use xlink:href="#DejaVuSans-20" x="248.242188"/>
     <use xlink:href="#DejaVuSans-3d" x="280.029297"/>
     <use xlink:href="#DejaVuSans-20" x="363.818359"/>
     <use xlink:href="#DejaVuSans-77" x="395.605469"/>
    </g>
   </g>
  </g>
 </g>
</svg>
